<svg width="350" height="107" viewBox="0 0 350 107" fill="none" xmlns="http://www.w3.org/2000/svg">
<path d="M45.1044 43.1818V65H41.152V43.1818H45.1044ZM53.0705 55.4119V65H49.214V48.6364H52.9V51.4169H53.0918C53.4682 50.5007 54.0684 49.7727 54.8922 49.233C55.7232 48.6932 56.7495 48.4233 57.9711 48.4233C59.1003 48.4233 60.084 48.6648 60.9221 49.1477C61.7672 49.6307 62.4206 50.3303 62.8823 51.2464C63.351 52.1626 63.5819 53.2741 63.5748 54.581V65H59.7182V55.1776C59.7182 54.0838 59.4341 53.228 58.8659 52.6101C58.3049 51.9922 57.5272 51.6832 56.5328 51.6832C55.8581 51.6832 55.258 51.8324 54.7324 52.1307C54.214 52.4219 53.8056 52.8445 53.5073 53.3984C53.2161 53.9524 53.0705 54.6236 53.0705 55.4119ZM74.7395 65.3196C73.0989 65.3196 71.682 64.9787 70.4888 64.2969C69.3027 63.608 68.3901 62.6349 67.7509 61.3778C67.1117 60.1136 66.7921 58.6257 66.7921 56.9141C66.7921 55.2308 67.1117 53.7536 67.7509 52.4822C68.3972 51.2038 69.2992 50.2095 70.4569 49.4993C71.6145 48.782 72.9746 48.4233 74.5371 48.4233C75.5456 48.4233 76.4973 48.5866 77.3922 48.9134C78.2942 49.233 79.0897 49.7301 79.7786 50.4048C80.4746 51.0795 81.0215 51.9389 81.4192 52.983C81.8169 54.0199 82.0158 55.2557 82.0158 56.6903V57.8729H68.6032V55.2734H78.3191C78.312 54.5348 78.1522 53.8778 77.8397 53.3026C77.5272 52.7202 77.0904 52.2621 76.5293 51.9283C75.9753 51.5945 75.329 51.4276 74.5904 51.4276C73.802 51.4276 73.1096 51.6193 72.513 52.0028C71.9164 52.3793 71.4512 52.8764 71.1174 53.4943C70.7907 54.1051 70.6238 54.7763 70.6167 55.5078V57.777C70.6167 58.7287 70.7907 59.5455 71.1387 60.2273C71.4867 60.902 71.9732 61.4205 72.5982 61.7827C73.2232 62.1378 73.9547 62.3153 74.7928 62.3153C75.3539 62.3153 75.8617 62.2372 76.3162 62.081C76.7708 61.9176 77.165 61.6797 77.4988 61.3672C77.8326 61.0547 78.0847 60.6676 78.2551 60.206L81.856 60.6108C81.6287 61.5625 81.1955 62.3935 80.5563 63.1037C79.9242 63.8068 79.1145 64.3537 78.1273 64.7443C77.1401 65.1278 76.0108 65.3196 74.7395 65.3196ZM93.5668 48.6364V51.6193H83.8935V48.6364H93.5668ZM86.3118 65V47.0916C86.3118 45.9908 86.5391 45.0746 86.9936 44.343C87.4553 43.6115 88.0732 43.0646 88.8473 42.7024C89.6214 42.3402 90.4808 42.1591 91.4254 42.1591C92.093 42.1591 92.6861 42.2124 93.2045 42.3189C93.723 42.4254 94.1065 42.5213 94.3551 42.6065L93.5881 45.5895C93.4247 45.5398 93.2188 45.4901 92.9702 45.4403C92.7216 45.3835 92.4446 45.3551 92.1392 45.3551C91.4219 45.3551 90.9141 45.5291 90.6158 45.8771C90.3246 46.218 90.179 46.7081 90.179 47.3473V65H86.3118ZM104.875 48.6364V51.6193H95.2021V48.6364H104.875ZM97.6204 65V47.0916C97.6204 45.9908 97.8477 45.0746 98.3022 44.343C98.7638 43.6115 99.3817 43.0646 100.156 42.7024C100.93 42.3402 101.789 42.1591 102.734 42.1591C103.402 42.1591 103.995 42.2124 104.513 42.3189C105.032 42.4254 105.415 42.5213 105.664 42.6065L104.897 45.5895C104.733 45.5398 104.527 45.4901 104.279 45.4403C104.03 45.3835 103.753 45.3551 103.448 45.3551C102.73 45.3551 102.223 45.5291 101.924 45.8771C101.633 46.218 101.488 46.7081 101.488 47.3473V65H97.6204ZM112.048 65.3303C111.011 65.3303 110.077 65.1456 109.246 64.7763C108.422 64.3999 107.769 63.8459 107.286 63.1143C106.81 62.3828 106.572 61.4808 106.572 60.4084C106.572 59.4851 106.742 58.7216 107.083 58.1179C107.424 57.5142 107.889 57.0312 108.479 56.669C109.068 56.3068 109.732 56.0334 110.471 55.8487C111.217 55.657 111.987 55.5185 112.783 55.4332C113.742 55.3338 114.519 55.245 115.116 55.1669C115.713 55.0817 116.146 54.9538 116.416 54.7834C116.693 54.6058 116.831 54.3324 116.831 53.9631V53.8991C116.831 53.0966 116.593 52.4751 116.117 52.0348C115.642 51.5945 114.956 51.3743 114.061 51.3743C113.117 51.3743 112.367 51.5803 111.813 51.9922C111.267 52.4041 110.897 52.8906 110.705 53.4517L107.105 52.9403C107.389 51.946 107.857 51.1151 108.511 50.4474C109.164 49.7727 109.963 49.2685 110.908 48.9347C111.852 48.5938 112.896 48.4233 114.04 48.4233C114.828 48.4233 115.613 48.5156 116.394 48.7003C117.176 48.8849 117.889 49.1903 118.536 49.6165C119.182 50.0355 119.7 50.6072 120.091 51.3317C120.489 52.0561 120.688 52.9616 120.688 54.0483V65H116.98V62.7521H116.852C116.618 63.2067 116.288 63.6328 115.862 64.0305C115.443 64.4212 114.914 64.7372 114.274 64.9787C113.642 65.2131 112.9 65.3303 112.048 65.3303ZM113.049 62.4964C113.823 62.4964 114.494 62.3437 115.063 62.0384C115.631 61.7259 116.068 61.3139 116.373 60.8026C116.686 60.2912 116.842 59.7337 116.842 59.13V57.2017C116.721 57.3011 116.515 57.3935 116.224 57.4787C115.94 57.5639 115.62 57.6385 115.265 57.7024C114.91 57.7663 114.558 57.8232 114.21 57.8729C113.862 57.9226 113.561 57.9652 113.305 58.0007C112.73 58.0788 112.215 58.2067 111.76 58.3842C111.306 58.5618 110.947 58.8104 110.684 59.13C110.421 59.4425 110.29 59.8473 110.29 60.3445C110.29 61.0547 110.549 61.5909 111.068 61.9531C111.586 62.3153 112.247 62.4964 113.049 62.4964ZM124.736 65V43.1818H128.593V51.3423H128.752C128.951 50.9446 129.232 50.522 129.594 50.0746C129.956 49.62 130.446 49.233 131.064 48.9134C131.682 48.5866 132.47 48.4233 133.429 48.4233C134.693 48.4233 135.833 48.7464 136.849 49.3928C137.872 50.032 138.681 50.9801 139.278 52.2372C139.882 53.4872 140.183 55.0213 140.183 56.8395C140.183 58.6364 139.889 60.1634 139.299 61.4205C138.71 62.6776 137.907 63.6364 136.892 64.2969C135.876 64.9574 134.725 65.2876 133.44 65.2876C132.502 65.2876 131.725 65.1314 131.107 64.8189C130.489 64.5064 129.992 64.13 129.615 63.6896C129.246 63.2422 128.958 62.8196 128.752 62.4219H128.529V65H124.736ZM128.518 56.8182C128.518 57.8764 128.667 58.8033 128.965 59.5987C129.271 60.3942 129.708 61.0156 130.276 61.4631C130.851 61.9034 131.547 62.1236 132.364 62.1236C133.216 62.1236 133.93 61.8963 134.505 61.4418C135.08 60.9801 135.514 60.3516 135.805 59.5561C136.103 58.7536 136.252 57.8409 136.252 56.8182C136.252 55.8026 136.107 54.9006 135.816 54.1122C135.524 53.3239 135.091 52.706 134.516 52.2585C133.941 51.8111 133.223 51.5874 132.364 51.5874C131.54 51.5874 130.84 51.804 130.265 52.2372C129.69 52.6705 129.253 53.2777 128.955 54.0589C128.664 54.8402 128.518 55.7599 128.518 56.8182ZM147.319 43.1818V65H143.462V43.1818H147.319ZM158.529 65.3196C156.888 65.3196 155.471 64.9787 154.278 64.2969C153.092 63.608 152.179 62.6349 151.54 61.3778C150.901 60.1136 150.581 58.6257 150.581 56.9141C150.581 55.2308 150.901 53.7536 151.54 52.4822C152.186 51.2038 153.088 50.2095 154.246 49.4993C155.404 48.782 156.764 48.4233 158.326 48.4233C159.335 48.4233 160.286 48.5866 161.181 48.9134C162.083 49.233 162.879 49.7301 163.568 50.4048C164.264 51.0795 164.811 51.9389 165.208 52.983C165.606 54.0199 165.805 55.2557 165.805 56.6903V57.8729H152.392V55.2734H162.108C162.101 54.5348 161.941 53.8778 161.629 53.3026C161.316 52.7202 160.879 52.2621 160.318 51.9283C159.764 51.5945 159.118 51.4276 158.379 51.4276C157.591 51.4276 156.899 51.6193 156.302 52.0028C155.705 52.3793 155.24 52.8764 154.906 53.4943C154.58 54.1051 154.413 54.7763 154.406 55.5078V57.777C154.406 58.7287 154.58 59.5455 154.928 60.2273C155.276 60.902 155.762 61.4205 156.387 61.7827C157.012 62.1378 157.744 62.3153 158.582 62.3153C159.143 62.3153 159.651 62.2372 160.105 62.081C160.56 61.9176 160.954 61.6797 161.288 61.3672C161.622 61.0547 161.874 60.6676 162.044 60.206L165.645 60.6108C165.418 61.5625 164.985 62.3935 164.345 63.1037C163.713 63.8068 162.904 64.3537 161.916 64.7443C160.929 65.1278 159.8 65.3196 158.529 65.3196ZM181.271 65L175.113 43.1818H179.364L183.295 59.2152H183.498L187.695 43.1818H191.562L195.77 59.2259H195.962L199.893 43.1818H204.144L197.986 65H194.087L189.719 49.6911H189.549L185.17 65H181.271ZM212.288 65.3196C210.648 65.3196 209.231 64.9787 208.038 64.2969C206.852 63.608 205.939 62.6349 205.3 61.3778C204.661 60.1136 204.341 58.6257 204.341 56.9141C204.341 55.2308 204.661 53.7536 205.3 52.4822C205.946 51.2038 206.848 50.2095 208.006 49.4993C209.163 48.782 210.523 48.4233 212.086 48.4233C213.094 48.4233 214.046 48.5866 214.941 48.9134C215.843 49.233 216.638 49.7301 217.327 50.4048C218.023 51.0795 218.57 51.9389 218.968 52.983C219.366 54.0199 219.565 55.2557 219.565 56.6903V57.8729H206.152V55.2734H215.868C215.861 54.5348 215.701 53.8778 215.388 53.3026C215.076 52.7202 214.639 52.2621 214.078 51.9283C213.524 51.5945 212.878 51.4276 212.139 51.4276C211.351 51.4276 210.658 51.6193 210.062 52.0028C209.465 52.3793 209 52.8764 208.666 53.4943C208.339 54.1051 208.173 54.7763 208.165 55.5078V57.777C208.165 58.7287 208.339 59.5455 208.688 60.2273C209.036 60.902 209.522 61.4205 210.147 61.7827C210.772 62.1378 211.504 62.3153 212.342 62.3153C212.903 62.3153 213.411 62.2372 213.865 62.081C214.32 61.9176 214.714 61.6797 215.048 61.3672C215.381 61.0547 215.634 60.6676 215.804 60.206L219.405 60.6108C219.178 61.5625 218.744 62.3935 218.105 63.1037C217.473 63.8068 216.663 64.3537 215.676 64.7443C214.689 65.1278 213.56 65.3196 212.288 65.3196ZM222.998 65V43.1818H226.854V51.3423H227.014C227.213 50.9446 227.493 50.522 227.856 50.0746C228.218 49.62 228.708 49.233 229.326 48.9134C229.944 48.5866 230.732 48.4233 231.691 48.4233C232.955 48.4233 234.095 48.7464 235.111 49.3928C236.133 50.032 236.943 50.9801 237.54 52.2372C238.143 53.4872 238.445 55.0213 238.445 56.8395C238.445 58.6364 238.15 60.1634 237.561 61.4205C236.971 62.6776 236.169 63.6364 235.153 64.2969C234.138 64.9574 232.987 65.2876 231.702 65.2876C230.764 65.2876 229.986 65.1314 229.368 64.8189C228.751 64.5064 228.253 64.13 227.877 63.6896C227.508 63.2422 227.22 62.8196 227.014 62.4219H226.79V65H222.998ZM226.78 56.8182C226.78 57.8764 226.929 58.8033 227.227 59.5987C227.532 60.3942 227.969 61.0156 228.537 61.4631C229.113 61.9034 229.809 62.1236 230.626 62.1236C231.478 62.1236 232.192 61.8963 232.767 61.4418C233.342 60.9801 233.775 60.3516 234.067 59.5561C234.365 58.7536 234.514 57.8409 234.514 56.8182C234.514 55.8026 234.368 54.9006 234.077 54.1122C233.786 53.3239 233.353 52.706 232.778 52.2585C232.202 51.8111 231.485 51.5874 230.626 51.5874C229.802 51.5874 229.102 51.804 228.527 52.2372C227.952 52.6705 227.515 53.2777 227.216 54.0589C226.925 54.8402 226.78 55.7599 226.78 56.8182ZM254.657 52.9616L251.141 53.3452C251.042 52.9901 250.868 52.6562 250.619 52.3438C250.378 52.0312 250.051 51.7791 249.639 51.5874C249.227 51.3956 248.723 51.2997 248.126 51.2997C247.324 51.2997 246.649 51.4737 246.102 51.8217C245.562 52.1697 245.296 52.6207 245.303 53.1747C245.296 53.6506 245.47 54.0376 245.825 54.3359C246.188 54.6342 246.784 54.8793 247.615 55.071L250.406 55.6676C251.955 56.0014 253.105 56.5305 253.858 57.255C254.618 57.9794 255.001 58.9276 255.009 60.0994C255.001 61.1293 254.7 62.0384 254.103 62.8267C253.513 63.608 252.693 64.2187 251.642 64.6591C250.591 65.0994 249.384 65.3196 248.02 65.3196C246.017 65.3196 244.405 64.9006 243.183 64.0625C241.962 63.2173 241.234 62.0419 240.999 60.5362L244.76 60.174C244.93 60.9126 245.293 61.4702 245.847 61.8466C246.401 62.223 247.121 62.4112 248.009 62.4112C248.925 62.4112 249.661 62.223 250.214 61.8466C250.776 61.4702 251.056 61.005 251.056 60.451C251.056 59.9822 250.875 59.5952 250.513 59.2898C250.158 58.9844 249.604 58.75 248.851 58.5866L246.06 58.0007C244.49 57.674 243.329 57.1236 242.576 56.3494C241.823 55.5682 241.45 54.581 241.457 53.3878C241.45 52.3793 241.724 51.5057 242.278 50.767C242.839 50.0213 243.616 49.446 244.611 49.0412C245.612 48.6293 246.766 48.4233 248.073 48.4233C249.991 48.4233 251.5 48.8317 252.601 49.6484C253.709 50.4652 254.394 51.5696 254.657 52.9616ZM258.189 65V48.6364H262.045V65H258.189ZM260.127 46.3139C259.517 46.3139 258.991 46.1115 258.551 45.7067C258.11 45.2947 257.89 44.8011 257.89 44.2259C257.89 43.6435 258.11 43.1499 258.551 42.745C258.991 42.3331 259.517 42.1271 260.127 42.1271C260.745 42.1271 261.271 42.3331 261.704 42.745C262.145 43.1499 262.365 43.6435 262.365 44.2259C262.365 44.8011 262.145 45.2947 261.704 45.7067C261.271 46.1115 260.745 46.3139 260.127 46.3139ZM274.182 48.6364V51.6193H264.775V48.6364H274.182ZM267.097 44.7159H270.954V60.0781C270.954 60.5966 271.032 60.9943 271.188 61.2713C271.352 61.5412 271.565 61.7259 271.828 61.8253C272.09 61.9247 272.382 61.9744 272.701 61.9744C272.943 61.9744 273.163 61.9567 273.362 61.9212C273.568 61.8857 273.724 61.8537 273.83 61.8253L274.48 64.8402C274.274 64.9112 273.98 64.9893 273.596 65.0746C273.22 65.1598 272.758 65.2095 272.211 65.2237C271.245 65.2521 270.375 65.1065 269.601 64.7869C268.827 64.4602 268.213 63.956 267.758 63.2741C267.311 62.5923 267.09 61.7401 267.097 60.7173V44.7159ZM284.476 65.3196C282.835 65.3196 281.418 64.9787 280.225 64.2969C279.039 63.608 278.126 62.6349 277.487 61.3778C276.848 60.1136 276.528 58.6257 276.528 56.9141C276.528 55.2308 276.848 53.7536 277.487 52.4822C278.134 51.2038 279.036 50.2095 280.193 49.4993C281.351 48.782 282.711 48.4233 284.273 48.4233C285.282 48.4233 286.234 48.5866 287.129 48.9134C288.031 49.233 288.826 49.7301 289.515 50.4048C290.211 51.0795 290.758 51.9389 291.156 52.983C291.553 54.0199 291.752 55.2557 291.752 56.6903V57.8729H278.339V55.2734H288.055C288.048 54.5348 287.888 53.8778 287.576 53.3026C287.263 52.7202 286.827 52.2621 286.266 51.9283C285.712 51.5945 285.065 51.4276 284.327 51.4276C283.538 51.4276 282.846 51.6193 282.249 52.0028C281.653 52.3793 281.188 52.8764 280.854 53.4943C280.527 54.1051 280.36 54.7763 280.353 55.5078V57.777C280.353 58.7287 280.527 59.5455 280.875 60.2273C281.223 60.902 281.71 61.4205 282.335 61.7827C282.96 62.1378 283.691 62.3153 284.529 62.3153C285.09 62.3153 285.598 62.2372 286.053 62.081C286.507 61.9176 286.901 61.6797 287.235 61.3672C287.569 61.0547 287.821 60.6676 287.991 60.206L291.592 60.6108C291.365 61.5625 290.932 62.3935 290.293 63.1037C289.661 63.8068 288.851 64.3537 287.864 64.7443C286.876 65.1278 285.747 65.3196 284.476 65.3196ZM307.948 52.9616L304.432 53.3452C304.333 52.9901 304.159 52.6562 303.91 52.3438C303.669 52.0312 303.342 51.7791 302.93 51.5874C302.518 51.3956 302.014 51.2997 301.417 51.2997C300.615 51.2997 299.94 51.4737 299.393 51.8217C298.854 52.1697 298.587 52.6207 298.594 53.1747C298.587 53.6506 298.761 54.0376 299.116 54.3359C299.479 54.6342 300.075 54.8793 300.906 55.071L303.697 55.6676C305.246 56.0014 306.396 56.5305 307.149 57.255C307.909 57.9794 308.292 58.9276 308.3 60.0994C308.292 61.1293 307.991 62.0384 307.394 62.8267C306.805 63.608 305.984 64.2187 304.933 64.6591C303.882 65.0994 302.675 65.3196 301.311 65.3196C299.308 65.3196 297.696 64.9006 296.474 64.0625C295.253 63.2173 294.525 62.0419 294.29 60.5362L298.051 60.174C298.221 60.9126 298.584 61.4702 299.138 61.8466C299.692 62.223 300.412 62.4112 301.3 62.4112C302.216 62.4112 302.952 62.223 303.506 61.8466C304.067 61.4702 304.347 61.005 304.347 60.451C304.347 59.9822 304.166 59.5952 303.804 59.2898C303.449 58.9844 302.895 58.75 302.142 58.5866L299.351 58.0007C297.781 57.674 296.62 57.1236 295.867 56.3494C295.114 55.5682 294.741 54.581 294.748 53.3878C294.741 52.3793 295.015 51.5057 295.569 50.767C296.13 50.0213 296.907 49.446 297.902 49.0412C298.903 48.6293 300.057 48.4233 301.364 48.4233C303.282 48.4233 304.791 48.8317 305.892 49.6484C307 50.4652 307.685 51.5696 307.948 52.9616Z" fill="#033944"/>
</svg>
