<svg width="350" height="107" viewBox="0 0 350 107" fill="none" xmlns="http://www.w3.org/2000/svg">
<path d="M43.5092 43.1818V65H38.8963V43.1818H43.5092ZM51.7576 55.5398V65H47.2193V48.6364H51.5446V51.5234H51.7363C52.0985 50.5717 52.7058 49.8189 53.5581 49.2649C54.4103 48.7038 55.4437 48.4233 56.6582 48.4233C57.7946 48.4233 58.7853 48.6719 59.6305 49.169C60.4757 49.6662 61.1326 50.3764 61.6014 51.2997C62.0701 52.2159 62.3045 53.3097 62.3045 54.581V65H57.7662V55.3906C57.7733 54.3892 57.5176 53.608 56.9991 53.0469C56.4806 52.4787 55.7669 52.1946 54.8578 52.1946C54.247 52.1946 53.7072 52.326 53.2385 52.5888C52.7768 52.8516 52.4146 53.2351 52.1518 53.7393C51.8961 54.2365 51.7647 54.8366 51.7576 55.5398ZM73.3388 65.3196C71.6555 65.3196 70.2067 64.9787 68.9922 64.2969C67.7848 63.608 66.8544 62.6349 66.201 61.3778C65.5476 60.1136 65.2209 58.6186 65.2209 56.8928C65.2209 55.2095 65.5476 53.7322 66.201 52.4609C66.8544 51.1896 67.7741 50.1989 68.9602 49.4886C70.1534 48.7784 71.5526 48.4233 73.1577 48.4233C74.2372 48.4233 75.2422 48.5973 76.1726 48.9453C77.1101 49.2862 77.9268 49.8011 78.6229 50.4901C79.326 51.179 79.8729 52.0455 80.2635 53.0895C80.6541 54.1264 80.8494 55.3409 80.8494 56.733V57.9794H67.032V55.1669H76.5774C76.5774 54.5135 76.4354 53.9347 76.1513 53.4304C75.8672 52.9261 75.473 52.532 74.9688 52.2479C74.4716 51.9567 73.8928 51.8111 73.2322 51.8111C72.5433 51.8111 71.9325 51.9709 71.3999 52.2905C70.8743 52.603 70.4624 53.0256 70.1641 53.5582C69.8658 54.0838 69.7131 54.6697 69.706 55.3161V57.9901C69.706 58.7997 69.8551 59.4993 70.1534 60.0888C70.4588 60.6783 70.8885 61.1328 71.4425 61.4524C71.9964 61.772 72.6534 61.9318 73.4134 61.9318C73.9176 61.9318 74.3793 61.8608 74.7983 61.7188C75.2173 61.5767 75.576 61.3636 75.8743 61.0795C76.1726 60.7955 76.3999 60.4474 76.5561 60.0355L80.7536 60.3125C80.5405 61.321 80.1037 62.2017 79.4432 62.9545C78.7898 63.7003 77.9446 64.2827 76.9077 64.7017C75.8778 65.1136 74.6882 65.3196 73.3388 65.3196ZM92.6108 48.6364V52.0455H82.5114V48.6364H92.6108ZM84.8232 65V47.4538C84.8232 46.2678 85.054 45.2841 85.5156 44.5028C85.9844 43.7216 86.6236 43.1357 87.4332 42.745C88.2429 42.3544 89.1626 42.1591 90.1925 42.1591C90.8885 42.1591 91.5241 42.2124 92.0994 42.3189C92.6818 42.4254 93.1151 42.5213 93.3991 42.6065L92.5895 46.0156C92.4119 45.9588 92.1918 45.9055 91.929 45.8558C91.6733 45.8061 91.4105 45.7812 91.1406 45.7812C90.473 45.7812 90.0078 45.9375 89.745 46.25C89.4822 46.5554 89.3509 46.9851 89.3509 47.5391V65H84.8232ZM104.183 48.6364V52.0455H94.0836V48.6364H104.183ZM96.3954 65V47.4538C96.3954 46.2678 96.6262 45.2841 97.0879 44.5028C97.5566 43.7216 98.1958 43.1357 99.0055 42.745C99.8152 42.3544 100.735 42.1591 101.765 42.1591C102.461 42.1591 103.096 42.2124 103.672 42.3189C104.254 42.4254 104.687 42.5213 104.971 42.6065L104.162 46.0156C103.984 45.9588 103.764 45.9055 103.501 45.8558C103.246 45.8061 102.983 45.7812 102.713 45.7812C102.045 45.7812 101.58 45.9375 101.317 46.25C101.055 46.5554 100.923 46.9851 100.923 47.5391V65H96.3954ZM111.036 65.3089C109.992 65.3089 109.061 65.1278 108.245 64.7656C107.428 64.3963 106.782 63.853 106.306 63.1357C105.837 62.4112 105.603 61.5092 105.603 60.4297C105.603 59.5206 105.77 58.7571 106.103 58.1392C106.437 57.5213 106.892 57.0241 107.467 56.6477C108.042 56.2713 108.696 55.9872 109.427 55.7955C110.166 55.6037 110.94 55.4688 111.75 55.3906C112.701 55.2912 113.468 55.1989 114.051 55.1136C114.633 55.0213 115.056 54.8864 115.319 54.7088C115.581 54.5312 115.713 54.2685 115.713 53.9205V53.8565C115.713 53.1818 115.5 52.6598 115.074 52.2905C114.654 51.9212 114.058 51.7365 113.284 51.7365C112.467 51.7365 111.817 51.9176 111.334 52.2798C110.851 52.6349 110.532 53.0824 110.375 53.6222L106.178 53.2812C106.391 52.2869 106.81 51.4276 107.435 50.7031C108.06 49.9716 108.866 49.4105 109.853 49.0199C110.848 48.6222 111.998 48.4233 113.305 48.4233C114.214 48.4233 115.084 48.5298 115.915 48.7429C116.753 48.956 117.495 49.2862 118.142 49.7337C118.795 50.1811 119.31 50.7564 119.686 51.4595C120.063 52.1555 120.251 52.9901 120.251 53.9631V65H115.947V62.7308H115.819C115.556 63.2422 115.205 63.6932 114.765 64.0838C114.324 64.4673 113.795 64.7692 113.177 64.9893C112.559 65.2024 111.846 65.3089 111.036 65.3089ZM112.336 62.1768C113.003 62.1768 113.593 62.0455 114.104 61.7827C114.615 61.5128 115.017 61.1506 115.308 60.696C115.599 60.2415 115.745 59.7266 115.745 59.1513V57.4148C115.603 57.5071 115.407 57.5923 115.159 57.6705C114.917 57.7415 114.644 57.8089 114.338 57.8729C114.033 57.9297 113.728 57.983 113.422 58.0327C113.117 58.0753 112.84 58.1143 112.591 58.1499C112.059 58.228 111.593 58.3523 111.196 58.5227C110.798 58.6932 110.489 58.924 110.269 59.2152C110.049 59.4993 109.939 59.8544 109.939 60.2805C109.939 60.8984 110.162 61.3707 110.61 61.6974C111.064 62.017 111.64 62.1768 112.336 62.1768ZM123.857 65V43.1818H128.396V51.3849H128.534C128.733 50.9446 129.021 50.4972 129.397 50.0426C129.781 49.581 130.278 49.1974 130.888 48.892C131.506 48.5795 132.273 48.4233 133.19 48.4233C134.383 48.4233 135.484 48.7358 136.492 49.3608C137.501 49.9787 138.307 50.9126 138.911 52.1626C139.514 53.4055 139.816 54.9645 139.816 56.8395C139.816 58.6648 139.521 60.206 138.932 61.4631C138.349 62.7131 137.554 63.6612 136.545 64.3075C135.544 64.9467 134.422 65.2663 133.179 65.2663C132.298 65.2663 131.549 65.1207 130.931 64.8295C130.32 64.5384 129.82 64.1726 129.429 63.7322C129.038 63.2848 128.74 62.8338 128.534 62.3793H128.332V65H123.857ZM128.3 56.8182C128.3 57.7912 128.435 58.6399 128.705 59.3643C128.974 60.0888 129.365 60.6534 129.876 61.0582C130.388 61.456 131.009 61.6548 131.741 61.6548C132.479 61.6548 133.104 61.4524 133.616 61.0476C134.127 60.6357 134.514 60.0675 134.777 59.343C135.047 58.6115 135.182 57.7699 135.182 56.8182C135.182 55.8736 135.05 55.0426 134.788 54.3253C134.525 53.608 134.138 53.0469 133.626 52.642C133.115 52.2372 132.487 52.0348 131.741 52.0348C131.002 52.0348 130.377 52.2301 129.866 52.6207C129.362 53.0114 128.974 53.5653 128.705 54.2827C128.435 55 128.3 55.8452 128.3 56.8182ZM147.383 43.1818V65H142.844V43.1818H147.383ZM158.475 65.3196C156.792 65.3196 155.343 64.9787 154.129 64.2969C152.922 63.608 151.991 62.6349 151.338 61.3778C150.684 60.1136 150.358 58.6186 150.358 56.8928C150.358 55.2095 150.684 53.7322 151.338 52.4609C151.991 51.1896 152.911 50.1989 154.097 49.4886C155.29 48.7784 156.689 48.4233 158.294 48.4233C159.374 48.4233 160.379 48.5973 161.309 48.9453C162.247 49.2862 163.064 49.8011 163.76 50.4901C164.463 51.179 165.01 52.0455 165.4 53.0895C165.791 54.1264 165.986 55.3409 165.986 56.733V57.9794H152.169V55.1669H161.714C161.714 54.5135 161.572 53.9347 161.288 53.4304C161.004 52.9261 160.61 52.532 160.105 52.2479C159.608 51.9567 159.029 51.8111 158.369 51.8111C157.68 51.8111 157.069 51.9709 156.537 52.2905C156.011 52.603 155.599 53.0256 155.301 53.5582C155.002 54.0838 154.85 54.6697 154.843 55.3161V57.9901C154.843 58.7997 154.992 59.4993 155.29 60.0888C155.596 60.6783 156.025 61.1328 156.579 61.4524C157.133 61.772 157.79 61.9318 158.55 61.9318C159.054 61.9318 159.516 61.8608 159.935 61.7188C160.354 61.5767 160.713 61.3636 161.011 61.0795C161.309 60.7955 161.537 60.4474 161.693 60.0355L165.89 60.3125C165.677 61.321 165.24 62.2017 164.58 62.9545C163.926 63.7003 163.081 64.2827 162.044 64.7017C161.015 65.1136 159.825 65.3196 158.475 65.3196ZM180.888 65L174.645 43.1818H179.684L183.295 58.3416H183.476L187.461 43.1818H191.775L195.749 58.3736H195.941L199.552 43.1818H204.591L198.349 65H193.853L189.698 50.7351H189.528L185.383 65H180.888ZM212.675 65.3196C210.991 65.3196 209.543 64.9787 208.328 64.2969C207.121 63.608 206.19 62.6349 205.537 61.3778C204.884 60.1136 204.557 58.6186 204.557 56.8928C204.557 55.2095 204.884 53.7322 205.537 52.4609C206.19 51.1896 207.11 50.1989 208.296 49.4886C209.489 48.7784 210.888 48.4233 212.494 48.4233C213.573 48.4233 214.578 48.5973 215.509 48.9453C216.446 49.2862 217.263 49.8011 217.959 50.4901C218.662 51.179 219.209 52.0455 219.599 53.0895C219.99 54.1264 220.185 55.3409 220.185 56.733V57.9794H206.368V55.1669H215.913C215.913 54.5135 215.771 53.9347 215.487 53.4304C215.203 52.9261 214.809 52.532 214.305 52.2479C213.808 51.9567 213.229 51.8111 212.568 51.8111C211.879 51.8111 211.268 51.9709 210.736 52.2905C210.21 52.603 209.798 53.0256 209.5 53.5582C209.202 54.0838 209.049 54.6697 209.042 55.3161V57.9901C209.042 58.7997 209.191 59.4993 209.489 60.0888C209.795 60.6783 210.224 61.1328 210.778 61.4524C211.332 61.772 211.989 61.9318 212.749 61.9318C213.254 61.9318 213.715 61.8608 214.134 61.7188C214.553 61.5767 214.912 61.3636 215.21 61.0795C215.509 60.7955 215.736 60.4474 215.892 60.0355L220.089 60.3125C219.876 61.321 219.44 62.2017 218.779 62.9545C218.126 63.7003 217.281 64.2827 216.244 64.7017C215.214 65.1136 214.024 65.3196 212.675 65.3196ZM223.232 65V43.1818H227.771V51.3849H227.909C228.108 50.9446 228.396 50.4972 228.772 50.0426C229.156 49.581 229.653 49.1974 230.263 48.892C230.881 48.5795 231.648 48.4233 232.565 48.4233C233.758 48.4233 234.859 48.7358 235.867 49.3608C236.876 49.9787 237.682 50.9126 238.286 52.1626C238.889 53.4055 239.191 54.9645 239.191 56.8395C239.191 58.6648 238.896 60.206 238.307 61.4631C237.724 62.7131 236.929 63.6612 235.92 64.3075C234.919 64.9467 233.797 65.2663 232.554 65.2663C231.673 65.2663 230.924 65.1207 230.306 64.8295C229.695 64.5384 229.195 64.1726 228.804 63.7322C228.413 63.2848 228.115 62.8338 227.909 62.3793H227.707V65H223.232ZM227.675 56.8182C227.675 57.7912 227.81 58.6399 228.08 59.3643C228.349 60.0888 228.74 60.6534 229.251 61.0582C229.763 61.456 230.384 61.6548 231.116 61.6548C231.854 61.6548 232.479 61.4524 232.991 61.0476C233.502 60.6357 233.889 60.0675 234.152 59.343C234.422 58.6115 234.557 57.7699 234.557 56.8182C234.557 55.8736 234.425 55.0426 234.163 54.3253C233.9 53.608 233.513 53.0469 233.001 52.642C232.49 52.2372 231.862 52.0348 231.116 52.0348C230.377 52.0348 229.752 52.2301 229.241 52.6207C228.737 53.0114 228.349 53.5653 228.08 54.2827C227.81 55 227.675 55.8452 227.675 56.8182ZM255.834 53.3026L251.68 53.5582C251.608 53.2031 251.456 52.8835 251.221 52.5994C250.987 52.3082 250.678 52.0774 250.295 51.907C249.918 51.7294 249.467 51.6406 248.942 51.6406C248.238 51.6406 247.645 51.7898 247.162 52.0881C246.68 52.3793 246.438 52.7699 246.438 53.2599C246.438 53.6506 246.594 53.9808 246.907 54.2507C247.219 54.5206 247.756 54.7372 248.515 54.9006L251.477 55.4972C253.068 55.8239 254.254 56.3494 255.035 57.0739C255.817 57.7983 256.207 58.75 256.207 59.929C256.207 61.0014 255.891 61.9425 255.259 62.7521C254.634 63.5618 253.775 64.1939 252.681 64.6484C251.594 65.0959 250.341 65.3196 248.92 65.3196C246.754 65.3196 245.028 64.8686 243.743 63.9666C242.464 63.0575 241.715 61.8217 241.495 60.2592L245.959 60.0249C246.094 60.6854 246.42 61.1896 246.939 61.5376C247.457 61.8786 248.121 62.049 248.931 62.049C249.726 62.049 250.366 61.8963 250.849 61.5909C251.339 61.2784 251.587 60.8771 251.594 60.3871C251.587 59.9751 251.413 59.6378 251.072 59.375C250.731 59.1051 250.206 58.8991 249.496 58.7571L246.662 58.1925C245.064 57.8729 243.874 57.3189 243.093 56.5305C242.319 55.7422 241.932 54.7372 241.932 53.5156C241.932 52.4645 242.216 51.5589 242.784 50.799C243.359 50.0391 244.165 49.4531 245.202 49.0412C246.246 48.6293 247.468 48.4233 248.867 48.4233C250.934 48.4233 252.56 48.8601 253.746 49.7337C254.939 50.6072 255.635 51.7969 255.834 53.3026ZM259.065 65V48.6364H263.603V65H259.065ZM261.345 46.527C260.67 46.527 260.091 46.3033 259.608 45.8558C259.132 45.4013 258.895 44.858 258.895 44.2259C258.895 43.6009 259.132 43.0646 259.608 42.6172C260.091 42.1626 260.67 41.9354 261.345 41.9354C262.02 41.9354 262.595 42.1626 263.071 42.6172C263.554 43.0646 263.795 43.6009 263.795 44.2259C263.795 44.858 263.554 45.4013 263.071 45.8558C262.595 46.3033 262.02 46.527 261.345 46.527ZM275.943 48.6364V52.0455H266.088V48.6364H275.943ZM268.325 44.7159H272.864V59.9716C272.864 60.3906 272.928 60.7173 273.056 60.9517C273.183 61.179 273.361 61.3388 273.588 61.4311C273.823 61.5234 274.093 61.5696 274.398 61.5696C274.611 61.5696 274.824 61.5518 275.037 61.5163C275.25 61.4737 275.414 61.4418 275.527 61.4205L276.241 64.7976C276.014 64.8686 275.694 64.9503 275.282 65.0426C274.87 65.142 274.369 65.2024 273.78 65.2237C272.686 65.2663 271.727 65.1207 270.904 64.7869C270.087 64.4531 269.451 63.9347 268.997 63.2315C268.542 62.5284 268.318 61.6406 268.325 60.5682V44.7159ZM286.181 65.3196C284.497 65.3196 283.048 64.9787 281.834 64.2969C280.627 63.608 279.696 62.6349 279.043 61.3778C278.389 60.1136 278.063 58.6186 278.063 56.8928C278.063 55.2095 278.389 53.7322 279.043 52.4609C279.696 51.1896 280.616 50.1989 281.802 49.4886C282.995 48.7784 284.394 48.4233 285.999 48.4233C287.079 48.4233 288.084 48.5973 289.014 48.9453C289.952 49.2862 290.769 49.8011 291.465 50.4901C292.168 51.179 292.715 52.0455 293.105 53.0895C293.496 54.1264 293.691 55.3409 293.691 56.733V57.9794H279.874V55.1669H289.419C289.419 54.5135 289.277 53.9347 288.993 53.4304C288.709 52.9261 288.315 52.532 287.811 52.2479C287.313 51.9567 286.735 51.8111 286.074 51.8111C285.385 51.8111 284.774 51.9709 284.242 52.2905C283.716 52.603 283.304 53.0256 283.006 53.5582C282.708 54.0838 282.555 54.6697 282.548 55.3161V57.9901C282.548 58.7997 282.697 59.4993 282.995 60.0888C283.301 60.6783 283.73 61.1328 284.284 61.4524C284.838 61.772 285.495 61.9318 286.255 61.9318C286.759 61.9318 287.221 61.8608 287.64 61.7188C288.059 61.5767 288.418 61.3636 288.716 61.0795C289.014 60.7955 289.242 60.4474 289.398 60.0355L293.595 60.3125C293.382 61.321 292.945 62.2017 292.285 62.9545C291.632 63.7003 290.786 64.2827 289.749 64.7017C288.72 65.1136 287.53 65.3196 286.181 65.3196ZM310.268 53.3026L306.113 53.5582C306.042 53.2031 305.889 52.8835 305.655 52.5994C305.421 52.3082 305.112 52.0774 304.728 51.907C304.352 51.7294 303.901 51.6406 303.375 51.6406C302.672 51.6406 302.079 51.7898 301.596 52.0881C301.113 52.3793 300.872 52.7699 300.872 53.2599C300.872 53.6506 301.028 53.9808 301.34 54.2507C301.653 54.5206 302.189 54.7372 302.949 54.9006L305.911 55.4972C307.502 55.8239 308.688 56.3494 309.469 57.0739C310.25 57.7983 310.641 58.75 310.641 59.929C310.641 61.0014 310.325 61.9425 309.693 62.7521C309.068 63.5618 308.208 64.1939 307.115 64.6484C306.028 65.0959 304.774 65.3196 303.354 65.3196C301.188 65.3196 299.462 64.8686 298.176 63.9666C296.898 63.0575 296.149 61.8217 295.928 60.2592L300.392 60.0249C300.527 60.6854 300.854 61.1896 301.372 61.5376C301.891 61.8786 302.555 62.049 303.365 62.049C304.16 62.049 304.799 61.8963 305.282 61.5909C305.772 61.2784 306.021 60.8771 306.028 60.3871C306.021 59.9751 305.847 59.6378 305.506 59.375C305.165 59.1051 304.639 58.8991 303.929 58.7571L301.095 58.1925C299.497 57.8729 298.308 57.3189 297.526 56.5305C296.752 55.7422 296.365 54.7372 296.365 53.5156C296.365 52.4645 296.649 51.5589 297.218 50.799C297.793 50.0391 298.599 49.4531 299.636 49.0412C300.68 48.6293 301.901 48.4233 303.301 48.4233C305.367 48.4233 306.994 48.8601 308.18 49.7337C309.373 50.6072 310.069 51.7969 310.268 53.3026Z" fill="black"/>
</svg>
